<svg width="32" height="32" viewBox="0 0 32 32" fill="none" xmlns="http://www.w3.org/2000/svg">
<path fill-rule="evenodd" clip-rule="evenodd" d="M27.3779 16.9999H10.6221C10.2799 16.9999 10 16.7003 10 16.334V2.66571C10 2.3002 10.2799 1.99988 10.6221 1.99988H27.3779C27.7201 1.99988 28 2.3002 28 2.66571L22.6073 9.49988L28 16.334C28 16.7003 27.7201 16.9999 27.3779 16.9999Z" fill="#00BC9B"/>
<path fill-rule="evenodd" clip-rule="evenodd" d="M27.3779 16.9999H10.6221C10.2799 16.9999 10 16.7003 10 16.334V2.66571C10 2.3002 10.2799 1.99988 10.6221 1.99988H27.3779C27.7201 1.99988 28 2.3002 28 2.66571L22.6073 9.49988L28 16.334C28 16.7003 27.7201 16.9999 27.3779 16.9999Z" stroke="#4A4A4A" stroke-width="1.5" stroke-linecap="round" stroke-linejoin="round"/>
<path d="M12.083 11.7776V3.92346H21.0959" stroke="white" stroke-linecap="round" stroke-linejoin="round"/>
<path d="M9.97045 11.9052V29.6501" stroke="#4A4A4A" stroke-width="1.5" stroke-linecap="round" stroke-linejoin="round"/>
</svg>
