<svg xmlns="http://www.w3.org/2000/svg" viewBox="0 0 66 11"><defs><style>.cls-1{fill:#efc938;}</style></defs><title>after-b6</title><g id="Capa_2" data-name="Capa 2"><g id="Capa_1-2" data-name="Capa 1"><path class="cls-1" d="M45.57,11c-3.5,0-5.11-2.51-6.41-4.53s-2.27-3.37-4.33-3.4-2.74,1-4.06,2.9-3.13,4.56-7.3,4.74c-4.35.19-6.42-2.54-8.09-4.74-1.44-1.9-2.33-3-4-3C7.81,3,4,8,2.78,10a1.51,1.51,0,0,1-2.06.51,1.5,1.5,0,0,1-.5-2.06C.42,8.09,5.38,0,11.42,0c3.2,0,4.88,2.21,6.35,4.16s2.78,3.67,5.57,3.55,3.68-1.58,5-3.43S31.24,0,34.87.07s5.46,2.67,6.81,4.78S43.8,8,45.57,8h0c1.94,0,3.09-1.37,4.76-3.62C51.87,2.33,53.59,0,56.62,0c5.57,0,8.91,8,9.27,9a1.49,1.49,0,1,1-2.78,1.1c-.73-1.83-3.49-7-6.49-7-1.44,0-2.41,1.2-3.86,3.17C51.16,8.31,49.18,11,45.59,11Z"/></g></g></svg>