<svg xmlns="http://www.w3.org/2000/svg" width="16" height="17" fill="none"><path fill="#000" fill-rule="evenodd" d="M11.92.93c.27 0 .5.17.57.42l.02.09v1.03h1.35c.73 0 1.34.5 1.5 1.2l.03.12.02.12v10.54c0 .78-.56 1.42-1.31 1.54l-.12.01H1.88c-.77 0-1.41-.56-1.53-1.3l-.01-.13V4.02c0-.77.56-1.41 1.3-1.53l.13-.01H3.1v-.96c0-.27.18-.5.43-.57l.08-.02h.08c.26 0 .49.17.56.42l.02.09v1.03h7.06v-.95c0-.27.19-.5.44-.57l.07-.02h.08zm2.31 6.82H1.51v6.7c0 .17.1.3.24.36l.07.01h12.04c.16 0 .3-.1.35-.24l.02-.06V7.75zM1.88 3.65h12.05l.06.02c.14.05.24.2.24.35v2.55H1.51V3.96l.02-.07a.37.37 0 01.35-.24z" clip-rule="evenodd"/></svg>