<svg xmlns="http://www.w3.org/2000/svg" width="126" height="118"><g fill="none" fill-rule="evenodd"><path fill="#9B9B9B" stroke="#575756" stroke-linecap="round" stroke-linejoin="round" stroke-width="2.284" d="M42.462 72c-.147 2.965-2.69 5.25-5.68 5.106l-30.278-.688c-2.991-.146-5.3-2.667-5.153-5.633L5.61 42.95c.147-2.966 2.691-5.25 5.682-5.105l23.052.406c2.99.146 5.297 2.668 5.15 5.633L42.462 72z"/><path stroke="#FFF" stroke-linecap="round" stroke-linejoin="round" stroke-width="1.713" d="M4.783 71.178l3.352-25.58s-.109-4.313 3.068-4.218c3.177.094 23.592.028 23.592.028"/><path fill="#738289" stroke="#575756" stroke-linecap="round" stroke-linejoin="round" stroke-width="2.284" d="M60.695 103.856c.081 6.972-5.553 12.689-12.589 12.77-7.034.08-12.8-5.507-12.882-12.479-.081-6.972 5.554-12.69 12.588-12.77 7.036-.08 12.802 5.506 12.883 12.479z"/><path fill="#E8BE64" stroke="#595957" stroke-linecap="round" stroke-linejoin="round" stroke-width="2.284" d="M90.81 47.298c.03 2.517-2.005 4.58-4.546 4.61-2.538.028-4.621-1.988-4.65-4.505-.03-2.517 2.005-4.58 4.543-4.61 2.541-.029 4.624 1.987 4.654 4.505z"/><path fill="#BEE5F4" stroke="#5A5B5C" stroke-linecap="round" stroke-linejoin="round" stroke-width="2.284" d="M56.916 25.034c-.019.442-.025.889-.02 1.335.166 14.245 11.951 25.66 26.323 25.495l-.124-10.647c-8.44.097-15.36-6.605-15.458-14.971-.005-.451.018-.895.051-1.335"/><path fill="#BEE5F4" stroke="#5A5B5C" stroke-linecap="round" stroke-linejoin="round" stroke-width="2.284" d="M63.958 56.323c-.105-8.95 1.887-17.077 5.192-22.984-3.308-5.793-7.787-9.423-12.794-9.366-10.308.118-18.494 14.734-18.286 32.647"/><path fill="#E4E4E4" d="M87.022 56.665c-1.842 0-3.358-1.485-3.38-3.312a3.32 3.32 0 01.962-2.38 3.374 3.374 0 012.38-1.008l8.624-.099c1.88 0 3.396 1.486 3.417 3.312.021 1.846-1.477 3.367-3.34 3.388l-8.663.099z"/><path fill="#5A5B5C" fill-rule="nonzero" d="M95.647 50.998c1.222 0 2.222.976 2.236 2.193a2.227 2.227 0 01-2.21 2.243l-8.624.099h-.027a2.228 2.228 0 01-2.237-2.192 2.227 2.227 0 012.212-2.244l8.623-.099h.027zm0-2.264h-.053l-8.624.1a4.514 4.514 0 00-3.183 1.35 4.433 4.433 0 00-1.287 3.183c.029 2.443 2.057 4.43 4.522 4.43h.052l8.624-.1c2.493-.028 4.497-2.061 4.468-4.532-.027-2.444-2.055-4.431-4.52-4.431z"/><path fill="#F66" d="M31.727 96.607c-.125 0-.253-.021-.378-.065l-4.108-1.431a1.139 1.139 0 01-.666-.61 1.124 1.124 0 01-.008-.898l3.046-7.164a1.143 1.143 0 011.395-.64l4.373 1.362c.312.097.567.322.7.618.134.296.132.635-.003.93l-3.31 7.233c-.19.415-.604.665-1.04.665z"/><path fill="#575756" fill-rule="nonzero" d="M30.666 86.879l4.373 1.362-3.311 7.233-4.108-1.43 3.046-7.165zm0-2.265c-.897 0-1.74.527-2.105 1.385l-3.047 7.165a2.246 2.246 0 00.017 1.796c.255.57.737 1.012 1.33 1.22l4.109 1.43a2.287 2.287 0 002.838-1.2l3.311-7.234c.27-.59.272-1.267.005-1.859a2.277 2.277 0 00-1.4-1.236l-4.373-1.362a2.29 2.29 0 00-.685-.105z"/><path fill="#F4DD6E" stroke="#5A5B5C" stroke-linecap="round" stroke-linejoin="round" stroke-width="2.284" d="M111.257 53.525c.033 2.862-2.28 5.209-5.168 5.242-2.888.033-5.255-2.26-5.288-5.122-.034-2.863 2.279-5.209 5.167-5.242 2.888-.033 5.256 2.26 5.29 5.122z"/><path fill="#E4E4E4" stroke="#5A5B5C" stroke-linecap="round" stroke-linejoin="round" stroke-width="2.284" d="M38.456 80.6l26.993-.309.199 17.039-34.856.399z"/><path fill="#E4E4E4" stroke="#5A5B5C" stroke-linecap="round" stroke-linejoin="round" stroke-width="2.284" d="M110.098 83.146l-5.981-24.098-9.387-3.603 2.368 26.738-15.108 9.801-21.873.25c-3.18.037-5.727 2.62-5.691 5.774.037 3.15 2.644 5.678 5.824 5.642l25.441-.292c3.18-.036 5.73-2.622 5.693-5.773a5.655 5.655 0 00-1.32-3.564l10.903-9.438 9.131-1.437z"/><path fill="#738289" stroke="#575756" stroke-linecap="round" stroke-linejoin="round" stroke-width="2.284" d="M124.473 103.126c.081 6.972-5.556 12.689-12.59 12.77-7.033.08-12.803-5.507-12.884-12.479-.082-6.972 5.556-12.69 12.59-12.77 7.034-.081 12.803 5.506 12.884 12.479z"/><path fill="#FFF" stroke="#5A5B5C" stroke-linecap="round" stroke-linejoin="round" stroke-width="2.284" d="M117.537 103.205c.037 3.174-2.53 5.78-5.734 5.816-3.205.037-5.833-2.509-5.87-5.684-.037-3.176 2.531-5.78 5.736-5.817 3.203-.036 5.831 2.509 5.868 5.685zm-63.775.73c.036 3.175-2.529 5.78-5.734 5.817-3.205.037-5.832-2.51-5.87-5.684-.036-3.177 2.53-5.78 5.736-5.817 3.205-.037 5.83 2.508 5.868 5.684z"/><path fill="#E4E4E4" stroke="#5A5B5C" stroke-linecap="round" stroke-linejoin="round" stroke-width="2.284" d="M103.649 81.808c-7.562 2.952-11.276 11.418-8.299 18.912l27.38-10.688c-2.978-7.492-11.52-11.175-19.081-8.224zm-55.45 3.269c-10.455.263-18.716 8.879-18.449 19.243l37.862-.958C67.345 93 58.654 84.814 48.2 85.077z"/><path stroke="#5A5B5C" stroke-linecap="round" stroke-linejoin="round" stroke-width="2.755" d="M40.307 98.746l10.946-.125"/><path fill="#868686" stroke="#5A5B5C" stroke-linecap="round" stroke-linejoin="round" stroke-width="2.284" d="M74.01 76.122c.033 2.873-2.289 5.229-5.187 5.262l-29.176.334c-2.898.033-5.273-2.269-5.307-5.142-.033-2.87 2.288-5.225 5.185-5.259l29.176-.334c2.9-.033 5.275 2.268 5.308 5.14z"/><path fill="#E4E4E4" stroke="#5A5B5C" stroke-linecap="round" stroke-linejoin="round" stroke-width="2.284" d="M106.109 60.436l-12.365-2.084-.108-9.25 12.313-2.367z"/><path fill="#66A6CC" stroke="#575756" stroke-linecap="round" stroke-linejoin="round" stroke-width="2.284" d="M79.55 67.61c.639-6.532-6.643-6.626-7.305-6.502l-7.772.09a13.435 13.435 0 00-.71-4.151l-25.601-.785a13.404 13.404 0 00-1 5.248c.088 7.476 6.272 13.464 13.814 13.378l3.472-.04 11.613-.133-1.064 13.113 12.223 1.838 2.33-22.056"/><path stroke="#5A5B5C" stroke-linecap="round" stroke-linejoin="round" stroke-width="2.284" d="M67.12 61.167l-13.12.15"/><path fill="#FFF" stroke="#5A5B5C" stroke-linecap="round" stroke-linejoin="round" stroke-width="2.755" d="M73.665 83.667l-.026.002-3.527.04v-.001l-2.947.033a2.062 2.062 0 00-2.047 2.076l.076 6.442 5.017-.058v-.027l3.526-.04 8.542-.07c-.042-4.678-3.896-8.437-8.614-8.397z"/><path fill="#E8BE64" stroke="#595957" stroke-linecap="round" stroke-linejoin="round" stroke-width="2.284" d="M84.291 52.332c.03 2.516-2.004 4.58-4.544 4.608-2.54.03-4.62-1.987-4.65-4.503-.03-2.518 2.005-4.581 4.544-4.61 2.54-.03 4.621 1.986 4.65 4.505z"/><g fill="#BEE5F4" stroke="#5A5B5C" stroke-linecap="round" stroke-linejoin="round" stroke-width="2.284"><path d="M50.361 35.873c1.985 12.438 12.923 21.88 26.003 21.73l-.124-10.646C69 47.04 62.879 42.12 61.223 35.44"/></g><path fill="#00A082" d="M66.742 31.763c.66.317 1.377.535 2.131.637.342.046.69.076 1.043.072a7.097 7.097 0 006.462-4.314 6.95 6.95 0 00.444-1.51l1.07-2.463-14.293-3.801a4.575 4.575 0 01-1.95-1.102l-9.23 8.204 14.323 4.277zm2.602-19.32l10.745 2.856c.15-3.505-1.1-6.868-3.352-9.425l-7.393 6.569z"/><path fill="#2ABB9B" d="M69.982 1.728C62.728-.162 55.305 4.133 53.4 11.32l-4.785 15.03 3.803 1.136 9.23-8.204c-1.195-1.116-1.764-2.817-1.31-4.5.66-2.439 3.191-3.886 5.65-3.231l3.357.892 7.392-6.569a13.512 13.512 0 00-6.755-4.146z"/><g><path stroke="#5A5B5C" stroke-linecap="round" stroke-linejoin="round" stroke-width="2.284" d="M60.338 14.783c.66-2.44 3.19-3.887 5.65-3.232l14.1 3.748c.265-6.185-3.82-11.935-10.106-13.571C62.728-.162 55.305 4.133 53.4 11.32l-4.785 15.03 18.127 5.413c.66.317 1.377.535 2.131.637.342.046.69.076 1.043.072a7.097 7.097 0 006.462-4.314 6.95 6.95 0 00.444-1.51l1.07-2.463-14.293-3.801c-2.461-.656-3.92-3.163-3.26-5.601z"/><path fill="#98CDF7" stroke="#575756" stroke-linecap="round" stroke-linejoin="round" stroke-width="2.284" d="M80.09 15.3l-14.102-3.75c-2.459-.653-4.99.793-5.65 3.233-.659 2.438.8 4.945 3.26 5.6l14.293 3.801 1.768-6.021a13.43 13.43 0 00.43-2.864z"/><path d="M60.338 14.783c-.454 1.682.114 3.383 1.31 4.499l7.696-6.84-3.356-.892c-2.46-.653-4.99.794-5.65 3.233z"/></g><path stroke="#FFF" stroke-linecap="round" stroke-linejoin="round" stroke-width="1.713" d="M51.533 23.124l4.425-12.28s3.78-9.246 13.685-7.347"/><path stroke="#FFF" stroke-linecap="round" stroke-linejoin="round" stroke-width="1.142" d="M32.346 101.441s1.244-13.149 16.14-14.206M96.865 97.69S95.483 86.985 105.7 83.3m-8.203-22.314l1.923 19.192m-3.152-23.59l-.094-5.619 7.616-1.692m-51.097-14s3.923 17.536 20.576 19.467M50.107 29.465s-7.812 6.863-8.716 21.12"/></g></svg>