<svg width="29" height="28" viewBox="0 0 29 28" fill="none" xmlns="http://www.w3.org/2000/svg">
<path d="M23.1052 24.5959C20.1038 26.6288 15.2909 26.2443 11.0538 24.7532C6.81665 23.2622 3.14852 20.6701 2.23603 17.4849C1.32926 14.3063 3.17135 10.5401 5.43943 7.52363C7.70752 4.50712 10.3959 2.23369 13.4088 1.79706C16.4218 1.36043 19.7598 2.75457 22.3269 5.03721C24.894 7.31985 26.69 10.491 26.9872 14.2982C27.2901 18.112 26.1003 22.5624 23.1052 24.5959Z" fill="#FFC244"/>
<path fill-rule="evenodd" clip-rule="evenodd" d="M28.1081 23.1204C28.1081 23.1204 23.5526 22.5195 19.5028 23.1204C15.453 23.7212 1.55018 26.0462 1.55018 13.7744C1.55018 8.13358 0.918222 6.00635 3.85105 6.00635C6.78387 6.00635 6.78387 9.31406 6.78387 13.7744C6.78387 22.0293 19.6528 11.7931 27.6167 20.7712C29.2105 23.1204 28.1081 23.1204 28.1081 23.1204Z" fill="#FFF3DA" stroke="#4A4A4A"/>
<path fill-rule="evenodd" clip-rule="evenodd" d="M17.6869 6.1748C16.2695 6.1748 14.9399 6.46636 13.7352 7.04103C12.5905 7.5872 11.5837 8.37635 10.7425 9.38586C9.21571 11.22 8.33224 13.6788 8.23056 16.3572C8.07401 16.9227 8.13587 17.25 8.41615 17.3391C9.787 17.7748 12.0859 18.6463 13.934 19.2517C15.3421 19.713 16.3773 20.9418 18.0788 21.3693C19.2667 21.6677 20.7126 21.4999 22.4167 20.8658C24.6644 19.7211 26.2066 17.3848 26.2066 14.6945C26.2066 12.419 25.3207 10.2794 23.7115 8.67022C22.1023 7.06104 19.9624 6.1748 17.6869 6.1748Z" fill="#C68A0D"/>
<path fill-rule="evenodd" clip-rule="evenodd" d="M17.6869 6.1748C16.2695 6.1748 14.9399 6.46636 13.7352 7.04103C12.5905 7.5872 11.5837 8.37635 10.7425 9.38586C9.21571 11.22 8.33224 13.6788 8.23056 16.3572C8.07401 16.9227 8.13587 17.25 8.41615 17.3391C9.787 17.7748 12.0859 18.6463 13.934 19.2517C15.3421 19.713 16.3773 20.9418 18.0788 21.3693C19.2667 21.6677 20.7126 21.4999 22.4167 20.8658C24.6644 19.7211 26.2066 17.3848 26.2066 14.6945C26.2066 12.419 25.3207 10.2794 23.7115 8.67022C22.1023 7.06104 19.9624 6.1748 17.6869 6.1748ZM17.687 7.22667C19.6821 7.22667 21.557 8.00354 22.9674 9.41396C24.3786 10.8244 25.1551 12.6997 25.1551 14.6945C25.1551 17.9309 22.5222 20.5639 19.286 20.5639C18.0597 20.5639 16.9066 20.087 16.04 19.2197C15.9025 19.0823 15.7755 18.9379 15.6584 18.7871L15.5647 18.6635C15.0008 17.8855 14.6958 16.9534 14.6958 15.9735C14.6958 14.007 16.2957 12.4066 18.2623 12.4066C19.7783 12.4066 21.0108 13.6396 21.0108 15.1551C21.0108 16.3095 20.0717 17.2492 18.9171 17.2492C18.052 17.2492 17.3479 16.5444 17.3479 15.6794C17.3479 15.3885 17.1122 15.1532 16.8218 15.1532C16.5314 15.1532 16.2957 15.3886 16.2957 15.6794C16.2957 17.1245 17.472 18.2999 18.9171 18.2999C20.6519 18.2999 22.0631 16.8895 22.0631 15.1551C22.0631 13.0599 20.3584 11.3548 18.2624 11.3548C15.7157 11.3548 13.6436 13.4269 13.6436 15.9735C13.6436 16.6448 13.7604 17.297 13.9832 17.9089L14.0411 18.0611L9.27897 16.4712C9.3591 13.9954 10.1587 11.7314 11.5514 10.0587C13.0944 8.20609 15.2158 7.22667 17.687 7.22667Z" fill="#4A4A4A"/>
<path d="M2.53814 6.00655C2.53814 6.00655 2.57818 3.48928 1.49286 2.25" stroke="#4A4A4A" stroke-linecap="round" stroke-linejoin="round"/>
<path d="M5.17889 6.00655C5.17889 6.00655 5.21893 3.48928 4.13361 2.25" stroke="#4A4A4A" stroke-linecap="round" stroke-linejoin="round"/>
<path d="M2.97902 11.5722C2.97902 11.5722 3.97675 12.1612 4.69669 11.4865" stroke="#4A4A4A" stroke-linecap="round" stroke-linejoin="round"/>
<path fill-rule="evenodd" clip-rule="evenodd" d="M25.8385 2.41709C25.6697 2.23884 25.4009 2.21221 25.2025 2.34183L25.1317 2.39777L22.5006 4.74803C22.3 4.93789 22.2914 5.25435 22.4812 5.45487C22.65 5.63312 22.9188 5.65975 23.1173 5.53013L23.1881 5.47419L25.8192 3.12393C26.0197 2.93407 26.0284 2.61761 25.8385 2.41709ZM26.6076 6.00172C26.5039 5.77926 26.2573 5.66899 26.028 5.72919L25.9432 5.75988L24.3585 6.45328C24.1083 6.56998 24 6.86747 24.1167 7.11774C24.2204 7.3402 24.467 7.45047 24.6963 7.39027L24.7812 7.35959L26.3658 6.66618C26.6161 6.54948 26.7243 6.25199 26.6076 6.00172ZM21.27 1.49059C21.3594 1.27104 21.5956 1.13994 21.8358 1.19042L21.9221 1.21679C22.1417 1.3062 22.2728 1.54237 22.2223 1.78258L21.6447 4.31784L21.6184 4.40414C21.529 4.62369 21.2928 4.7548 21.0526 4.70431C20.7823 4.64751 20.6093 4.38239 20.6661 4.11215L21.2436 1.57689L21.27 1.49059Z" fill="#4A4A4A"/>
</svg>
