<svg xmlns="http://www.w3.org/2000/svg" width="31" height="30"><g fill="none"><path d="M-4.5-5h40v40h-40z"/><g stroke="#4A4A4A" stroke-width="1.8"><path d="M4.393 10.102a2.762 2.762 0 012.761 2.762v5.524a2.762 2.762 0 01-5.523 0v-5.524a2.762 2.762 0 012.762-2.762zm22.202 0a2.762 2.762 0 012.762 2.762v5.524a2.762 2.762 0 01-5.524 0v-5.524a2.762 2.762 0 012.762-2.762zM12.923 25h4.773a1.757 1.757 0 110 3.513h-4.773a1.757 1.757 0 110-3.513zM4.937 9.95c0-4.882 3.35-8.84 7.482-8.84H18.2c4.132 0 7.482 3.958 7.482 8.84M19.5 27c3.97.409 5.97-2.429 5.97-6.591"/></g></g></svg>