<svg xmlns="http://www.w3.org/2000/svg" width="34" height="27"><g fill="none" fill-rule="evenodd"><g stroke="#4A4A4A" stroke-linecap="round" stroke-linejoin="round" stroke-width="1.697"><path d="M11.766 22.098c0 1.746-1.487 3.161-3.319 3.161-1.834 0-3.32-1.415-3.32-3.161M14.07 6.117H4.298m22.192 8.48l-2.77-8.89c4.943-.963 2.77-4.163 1.217-4.163h-4.794c-1.095 0-1.905.97-1.66 1.986l3.604 12.102h-7.44c-1.074 0-1.854-.97-1.571-1.96l1.28-4.232H9.92c-3.111 0-5.894 1.839-6.983 4.616L1.16 18.753c-.337.861.33 1.78 1.296 1.78H24.26m2.23-5.936c3.307 0 5.987 2.555 5.987 5.935h-2.168"/><path d="M30.309 22.146c0 1.72-1.463 3.114-3.268 3.114-1.804 0-3.268-1.394-3.268-3.114 0-1.719 1.464-3.113 3.268-3.113 1.805 0 3.268 1.394 3.268 3.113z"/></g><path d="M-3.5-7h40v40h-40z"/></g></svg>