<svg xmlns="http://www.w3.org/2000/svg" width="261" height="151" fill="none"><g clip-path="url(#clip0)" opacity=".6"><g clip-path="url(#clip1)"><path fill="#D8D8D8" d="M130.222 127.257c-3.2.2-6.3.2-9.6.4h-9.6c-6.4 0-12.8-.4-19.1-.8-6.3-.4-12.8-1.1-19.1-2-6.3-.9-12.6-2.1-18.8-3.6-.4-.1-.6-.5-.5-.8.1-.4.5-.6.8-.6 12.6 1.6 25.2 2.8 37.8 3.7 6.3.5 12.6.8 19 1.3l19.1 1.1c.4 0 .7.4.7.7 0 .4-.4.6-.7.6zM42.422 85.557c1.9-.8 3.7-1.3 5.7-1.8s4-.8 6-.8c.4 0 .7.4.7.7 0 .2-.1.5-.4.6-1.9.9-3.7 1.4-5.7 1.8-2 .4-3.9.7-6 .8-.4 0-.7-.2-.7-.7-.1-.3.1-.5.4-.6zM130.22 122.357c58.763 0 106.4-9.044 106.4-20.2 0-11.156-47.637-20.2-106.4-20.2-58.763 0-106.4 9.044-106.4 20.2 0 11.156 47.637 20.2 106.4 20.2z"/><path fill="#B6B6B7" d="M130.221 113.856c19.109 0 34.6-3.402 34.6-7.6 0-4.197-15.491-7.6-34.6-7.6s-34.6 3.403-34.6 7.6c0 4.198 15.491 7.6 34.6 7.6z"/><path fill="#D8D8D8" stroke="#757575" stroke-linecap="round" stroke-linejoin="round" stroke-width="2" d="M118.621 15.158h-2.5c-6.6 0-12 5.4-12 12s5.4 12 12 12h2.5v71.7c5.7.2 11.6.3 17.6.3h6.3v-72c.1-13.3-10.7-24-23.9-24z"/><path stroke="#fff" stroke-linecap="round" stroke-linejoin="round" stroke-miterlimit="10" d="M120.022 109.359v-71.6h-4c-5.8 0-10.6-4.7-10.6-10.6 0-5.9 4.8-10.6 10.6-10.6h2.5"/><path stroke="#757575" stroke-linecap="round" stroke-linejoin="round" d="M136.52 110.958V39.158c0-13.2-10.8-24-24-24h-2.5"/><path stroke="#fff" stroke-linecap="round" stroke-linejoin="round" stroke-miterlimit="10" d="M138.02 110.958V39.158c0-13.2-10.8-24-24-24h-2.5"/><path fill="#7D8B93" d="M132.52 106.258a1 1 0 100-2 1 1 0 000 2z"/><path fill="#B2B6B7" d="M132.52 97.658a1 1 0 100-2 1 1 0 000 2zM132.52 89.059a1 1 0 100-2 1 1 0 000 2zM132.52 80.559a1 1 0 100-2 1 1 0 000 2zM132.52 71.959a1 1 0 100-2 1 1 0 000 2zM132.52 63.357a1 1 0 100-2 1 1 0 000 2zM132.52 54.857a1 1 0 100-2 1 1 0 000 2zM132.52 46.258a1 1 0 100-2 1 1 0 000 2z"/><path fill="#B2B6B7" stroke="#757575" stroke-linecap="round" stroke-linejoin="round" stroke-width="2" d="M116.819 12.758h-8.7v3.8c-3.5 3.5-5.9 8.9-5.9 15.1 0 6.2 2.3 11.7 5.9 15.1v3.8h8.7c8 0 14.6-8.5 14.6-18.9-.1-10.4-6.6-18.9-14.6-18.9z"/><path fill="#D8D8D8" stroke="#757575" stroke-linecap="round" stroke-linejoin="round" stroke-width="2" d="M109.42 50.558c8.064 0 14.6-8.462 14.6-18.9 0-10.438-6.536-18.9-14.6-18.9-8.063 0-14.6 8.462-14.6 18.9 0 10.438 6.537 18.9 14.6 18.9z"/><path stroke="#fff" stroke-linecap="round" stroke-linejoin="round" stroke-miterlimit="10" d="M103.019 46.958c-4-3-6.8-8.7-6.8-15.3 0-9.6 5.9-17.5 13.1-17.5 2.5 0 4.9.9 6.9 2.6"/><path fill="#B2B6B7" stroke="#757575" stroke-linecap="round" stroke-linejoin="round" stroke-width="2" d="M104.72 31.657c0-6.1 3-11.4 6.8-12.8-.7-.3-1.4-.4-2.1-.4-4.8 0-8.9 6.1-8.9 13.2 0 7.2 4.1 13.2 8.9 13.2.7 0 1.4-.1 2.1-.4-3.9-1.4-6.8-6.7-6.8-12.8z"/><path fill="#D8D8D8" d="M109.02 42.957l9.1-9.1c.1-.7.1-1.5.1-2.2 0-.6 0-1.1-.1-1.7l-10.8 11c.5.8 1.1 1.5 1.7 2z"/><path fill="#fff" d="M111.517 44.557c3.4-1.3 6.1-5.5 6.7-10.6l-9.1 9.1c.7.6 1.5 1.1 2.4 1.5zM111.519 18.857c-3.7 1.4-6.5 6.3-6.8 12.1l9.9-9.9c-.9-1-2-1.8-3.1-2.2z"/><path fill="#D8D8D8" d="M114.619 21.057l-9.9 9.9v.7c0 2.4.5 4.8 1.3 6.7l11.6-11.6c-.6-2.3-1.7-4.3-3-5.7z"/><path fill="#fff" d="M106.02 38.458c.4.9.8 1.8 1.3 2.5l10.9-10.9c-.1-1.1-.3-2.2-.6-3.3l-11.6 11.7z"/><path stroke="#757575" stroke-linecap="round" stroke-linejoin="round" stroke-width="2" d="M118.319 31.657c0-6.1-3-11.4-6.8-12.8-3.8 1.4-6.8 6.7-6.8 12.8 0 6.1 3 11.4 6.8 12.8 3.8-1.4 6.8-6.7 6.8-12.8zM123.922 110.857h15.5"/><path fill="#B6B6B7" d="M109.422 105.658s19 7.2 41.5 0l-7.1 7.2h-23.8l-10.6-7.2z"/><path fill="#D8D8D8" stroke="#757575" stroke-linecap="round" stroke-linejoin="round" stroke-width="2" d="M140.922 53.959c-1.8 0-3.5-1-4.4-2.6-.8-1.5-.8-3.2 0-4.7l3.3-5.9c.2-.4.7-.7 1.2-.7.2 0 .5.1.6.2.2.2.4.3.5.5l3.2 5.9c1.2 2.4.4 5.4-2 6.6-.8.4-1.6.7-2.4.7z"/><path stroke="#fff" stroke-linecap="round" stroke-linejoin="round" stroke-miterlimit="10" d="M140.921 52.158c-1.2 0-2.3-.6-2.8-1.7-.5-.9-.5-2.1 0-3l2.8-5.2"/></g></g><defs><clipPath id="clip0"><path fill="#fff" d="M0 0h260v150H0z" transform="translate(.219 .707)"/></clipPath><clipPath id="clip1"><path fill="#fff" d="M0 0h212.8v115.9H0z" transform="translate(23.82 11.758)"/></clipPath></defs></svg>