<svg xmlns="http://www.w3.org/2000/svg" width="28" height="28" fill="none"><path fill="#000" d="M10.495 19.3a.724.724 0 00-.718.627l-.006.098c0 1.181-1.104 2.156-2.478 2.156-1.317 0-2.385-.895-2.472-2.01l-.006-.146a.724.724 0 10-1.448 0c0 1.998 1.763 3.604 3.926 3.604 2.163 0 3.926-1.606 3.926-3.604 0-.4-.324-.724-.724-.724zM18.954 4.932L12.416 4.9l-.16.018-.164.048-.037.017-.138.078a.73.73 0 00.145 1.28l.102.034.07.015c.046.008.094.012.154.014l2.66.001.001 6.443-.005.193c-.049.827-.42 1.404-1.123 1.793l-.173.089-.187.08c-.383.153-.811.248-1.096.25l-1.4-.002v-.21l-.003-.171c-.071-1.774-1.094-3.357-2.44-3.357a.724.724 0 000 1.448c.429 0 .995 1.145.995 2.08v.936l.007.1c.053.36.357.624.717.624h2.129l.176-.007a5.024 5.024 0 001.977-.593l.177-.104.189-.124c.98-.685 1.508-1.714 1.508-3.025V6.365l2.378.011.062.017c.4.143.32 1.106-.161 1.175a.724.724 0 00-.598.903c.166.624.607 1.758 1.288 3.335l.4.916.384.855.048.09c.141.22.382.347.638.338l.132-.007.271.005c1.417.068 2.734.746 3.553 1.832.086.114.051.356-.054.427-.21.14-.795.145-.97.017a.724.724 0 10-.855 1.17c.67.489 1.917.494 2.63.016.801-.536.989-1.727.405-2.502l-.151-.192-.179-.206c-1.035-1.145-2.505-1.861-4.085-1.994l-.255-.017-.188-.42-.383-.877-.142-.331a49.11 49.11 0 01-.78-1.916l-.114-.313.069-.045c1.37-1.038.903-3.53-.886-3.72z"/><path fill="#000" d="M3.254 11.716c-.671.648-1.168 2.184-1.168 3.48v3.389l.007.1c.053.36.357.624.717.624h12.807l.1-.007a.726.726 0 00.624-.717l-.007-.1-.023-.105a.724.724 0 00-.694-.52H3.533v-2.664l.006-.183c.04-.806.337-1.78.648-2.174l.145-.162a.724.724 0 00-1.078-.96z"/><path fill="#000" fill-rule="evenodd" d="M25.32 19.466c0-2.3-1.898-4.163-4.237-4.163-2.338 0-4.236 1.862-4.236 4.163 0 2.3 1.898 4.163 4.236 4.163 2.339 0 4.237-1.862 4.237-4.163zm-7.025 0c0-1.498 1.247-2.715 2.788-2.715 1.542 0 2.789 1.217 2.789 2.715 0 1.498-1.247 2.715-2.789 2.715-1.541 0-2.788-1.217-2.788-2.715zM11.026 9.18a1.229 1.229 0 00-1.221-1.106H3.129l-.126.007A1.227 1.227 0 001.9 9.306v2.424l.007.126a1.228 1.228 0 001.222 1.105h6.676l.126-.006a1.227 1.227 0 001.102-1.225V9.306l-.007-.126zm-7.678.34h6.235v1.993H3.348V9.52z" clip-rule="evenodd"/></svg>